# xmcd
#
# Track frame offsets:
#	150
#	15559
#	31995
#	50832
#	67213
#	84877
#	104301
#	120683
#	138228
#	153345
#	169572
#	187857
#	204689
#	220923
#	237109
#	253093
#	270952
#	287028
#	306678
#
# Disc length: 4351
#
# Revision: 1
# Processed by: cddbd v1.5.1PL0 Copyright (c) Steve Scherf et al.
# Submitted via: dBpowerAMP V4.0
# Normalized: r0:TDELIM( - )
#
DISCID=0e10fd13
DTITLE=Various Artist - Hardcore Generation 2
DYEAR=1900
DGENRE=Hardcore
TTITLE0=Gabber Piet - Love U Hardcore
TTITLE1=Juggernaut - Ruffneck Rules Da Artcore Scene
TTITLE2=Party Animals - Roodkapje
TTITLE3=Rotterdam Terror Corps - We Declare War
TTITLE4=Dano and Z'ev - The Bottomline
TTITLE5=Trickster - White Line
TTITLE6=Mosselman - Mossels
TTITLE7=Stallion - Succers
TTITLE8=Reef Beest - Op Een Grote Paddestoel
TTITLE9=Thundergods From Asgard - Bustin' Walls
TTITLE10=Gabbers United - I Still Have Extasy
TTITLE11=Hardcore Motherfuckers - I'll Be Your Only Friend
TTITLE12=Dr Z-Vago - Bat Device
TTITLE13=Mastermind - Musical Masterpiece
TTITLE14=Ruffian - Here We Go Again
TTITLE15=Wicked - Tiger
TTITLE16=Syphax - At War
TTITLE17=Crypt - The 9th Circle
TTITLE18=Megatron - Terrorizing
EXTD=
EXTT0=
EXTT1=
EXTT2=
EXTT3=
EXTT4=
EXTT5=
EXTT6=
EXTT7=
EXTT8=
EXTT9=
EXTT10=
EXTT11=
EXTT12=
EXTT13=
EXTT14=
EXTT15=
EXTT16=
EXTT17=
EXTT18=
PLAYORDER=
